<svg xmlns="http://www.w3.org/2000/svg" viewBox="0 0 24 24" fill="none" stroke="#00D4FF" stroke-width="2" stroke-linecap="round" stroke-linejoin="round">
  <path d="M12 4.5a2.5 2.5 0 0 0-4.96-.46 2.5 2.5 0 0 0-1.98 3 2.5 2.5 0 0 0-1.32 4.24 3 3 0 0 0 .34 5.58 2.5 2.5 0 0 0 2.96 2.9 2.5 2.5 0 0 0 4.96-.32V4.5Z"/>
  <path d="M12 4.5a2.5 2.5 0 0 1 4.96-.46 2.5 2.5 0 0 1 1.98 3 2.5 2.5 0 0 1 1.32 4.24 3 3 0 0 1-.34 5.58 2.5 2.5 0 0 1-2.96 2.9 2.5 2.5 0 0 1-4.96-.32V4.5Z"/>
  <path d="M12 5h1a2 2 0 0 1 2 2v1"/>
  <path d="M12 12h1a2 2 0 0 1 2 2v1"/>
  <path d="M12 19h1a2 2 0 0 1 2-2v-1"/>
  <path d="M12 9h-1a2 2 0 0 0-2 2v1"/>
  <path d="M12 16h-1a2 2 0 0 0-2 2v1"/>
  <path d="M9 12h3"/>
</svg>
