<svg xmlns="http://www.w3.org/2000/svg" xmlns:xlink="http://www.w3.org/1999/xlink" version="1.1" width="256" height="256" viewBox="0 0 256 256" xml:space="preserve">
<g style="stroke: none; stroke-width: 0; stroke-dasharray: none; stroke-linecap: butt; stroke-linejoin: miter; stroke-miterlimit: 10; fill: none; fill-rule: nonzero; opacity: 1;" transform="translate(1.4065934065934016 1.4065934065934016) scale(2.81 2.81)">
	<path d="M 52.429 68.129 c -0.405 0 -0.813 -0.053 -1.215 -0.161 c -1.204 -0.322 -2.21 -1.094 -2.834 -2.174 c -0.499 -0.866 -1.439 -1.362 -2.431 -1.325 c -0.633 0.029 -1.269 0.03 -1.892 -0.001 c -1.004 -0.044 -1.938 0.459 -2.437 1.325 c -0.624 1.08 -1.63 1.853 -2.834 2.175 c -1.204 0.326 -2.461 0.157 -3.541 -0.466 l -4.856 -2.803 c -2.229 -1.287 -2.994 -4.146 -1.708 -6.375 c 0.5 -0.865 0.461 -1.948 -0.1 -2.825 c -0.158 -0.245 -0.312 -0.497 -0.46 -0.755 c -0.148 -0.256 -0.29 -0.515 -0.424 -0.776 c -0.478 -0.924 -1.396 -1.498 -2.396 -1.498 c -2.573 0 -4.666 -2.093 -4.666 -4.666 v -5.607 c 0 -2.573 2.093 -4.666 4.666 -4.666 c 1.001 0 1.909 -0.555 2.368 -1.448 c 0.288 -0.561 0.606 -1.111 0.945 -1.638 c 0.542 -0.841 0.568 -1.902 0.068 -2.768 c -1.287 -2.229 -0.521 -5.089 1.708 -6.375 l 4.856 -2.804 c 1.08 -0.623 2.337 -0.789 3.541 -0.466 c 1.204 0.322 2.21 1.095 2.833 2.174 c 0.5 0.867 1.429 1.387 2.432 1.326 c 0.623 -0.03 1.26 -0.03 1.891 0 c 0.985 0.044 1.937 -0.458 2.437 -1.324 c 1.289 -2.229 4.148 -2.995 6.375 -1.71 l 4.856 2.804 c 1.079 0.623 1.852 1.629 2.174 2.833 c 0.323 1.204 0.157 2.461 -0.466 3.541 c -0.5 0.866 -0.462 1.948 0.101 2.824 c 0.158 0.248 0.312 0.499 0.459 0.755 c 0.148 0.258 0.29 0.516 0.424 0.776 c 0.479 0.925 1.397 1.5 2.396 1.5 c 2.573 0 4.666 2.093 4.666 4.666 v 5.607 c 0 2.573 -2.093 4.666 -4.666 4.666 c -1.001 0 -1.908 0.555 -2.367 1.448 c -0.284 0.552 -0.602 1.103 -0.944 1.637 c -0.543 0.843 -0.569 1.903 -0.069 2.769 c 1.287 2.229 0.521 5.089 -1.707 6.376 l -4.856 2.803 C 54.035 67.917 53.237 68.129 52.429 68.129 z M 37.574 23.874 c -0.452 0 -0.91 0.115 -1.328 0.356 l -4.856 2.804 c -0.617 0.356 -1.058 0.931 -1.242 1.619 c -0.184 0.688 -0.089 1.406 0.267 2.023 c 0.876 1.519 0.831 3.377 -0.118 4.852 c -0.304 0.472 -0.589 0.967 -0.848 1.47 c -0.803 1.563 -2.391 2.534 -4.145 2.534 c -1.471 0 -2.668 1.196 -2.668 2.666 v 5.607 c 0 1.47 1.196 2.666 2.666 2.666 c 1.75 0 3.349 0.989 4.173 2.58 c 0.121 0.234 0.247 0.466 0.379 0.694 c 0.133 0.23 0.27 0.455 0.411 0.676 c 0.967 1.51 1.024 3.389 0.149 4.904 c -0.735 1.273 -0.297 2.907 0.976 3.643 l 4.856 2.803 c 0.618 0.356 1.336 0.45 2.023 0.267 c 0.688 -0.184 1.263 -0.625 1.619 -1.242 c 0.878 -1.519 2.518 -2.409 4.268 -2.324 c 0.558 0.026 1.129 0.028 1.698 0.001 c 1.758 -0.095 3.382 0.805 4.259 2.322 c 0.356 0.617 0.931 1.059 1.619 1.243 c 0.688 0.184 1.405 0.09 2.022 -0.267 l 4.856 -2.803 c 1.273 -0.735 1.711 -2.369 0.976 -3.643 c -0.876 -1.519 -0.831 -3.377 0.118 -4.851 c 0.308 -0.479 0.594 -0.975 0.848 -1.47 c 0.804 -1.563 2.392 -2.534 4.145 -2.534 c 1.471 0 2.668 -1.196 2.668 -2.666 v -5.607 c 0 -1.47 -1.196 -2.666 -2.666 -2.666 c -1.75 0 -3.349 -0.989 -4.172 -2.58 c -0.122 -0.234 -0.248 -0.466 -0.381 -0.697 c -0.132 -0.228 -0.27 -0.454 -0.411 -0.675 c -0.967 -1.507 -1.024 -3.387 -0.148 -4.903 c 0.356 -0.617 0.451 -1.335 0.267 -2.023 c -0.184 -0.688 -0.625 -1.263 -1.242 -1.619 l -4.856 -2.804 c -1.271 -0.734 -2.906 -0.296 -3.642 0.976 c -0.878 1.52 -2.514 2.401 -4.268 2.324 c -0.565 -0.027 -1.137 -0.027 -1.696 0 c -1.754 0.072 -3.384 -0.806 -4.26 -2.324 C 39.395 24.352 38.496 23.874 37.574 23.874 z" style="stroke: none; stroke-width: 1; stroke-dasharray: none; stroke-linecap: butt; stroke-linejoin: miter; stroke-miterlimit: 10; fill: rgb(0,0,0); fill-rule: nonzero; opacity: 1;" transform=" matrix(1 0 0 1 0 0) " stroke-linecap="round"/>
	<path d="M 45 58.77 c -7.592 0 -13.769 -6.177 -13.769 -13.77 c 0 -7.592 6.177 -13.769 13.769 -13.769 c 7.593 0 13.77 6.177 13.77 13.769 C 58.77 52.593 52.593 58.77 45 58.77 z M 45 33.231 c -6.489 0 -11.769 5.28 -11.769 11.769 S 38.511 56.77 45 56.77 S 56.77 51.489 56.77 45 S 51.489 33.231 45 33.231 z" style="stroke: none; stroke-width: 1; stroke-dasharray: none; stroke-linecap: butt; stroke-linejoin: miter; stroke-miterlimit: 10; fill: rgb(0,0,0); fill-rule: nonzero; opacity: 1;" transform=" matrix(1 0 0 1 0 0) " stroke-linecap="round"/>
	<path d="M 50.817 51.406 c -0.553 0 -1 -0.447 -1 -1 V 39.594 c 0 -0.552 0.447 -1 1 -1 s 1 0.448 1 1 v 10.813 C 51.817 50.959 51.37 51.406 50.817 51.406 z" style="stroke: none; stroke-width: 1; stroke-dasharray: none; stroke-linecap: butt; stroke-linejoin: miter; stroke-miterlimit: 10; fill: rgb(0,0,0); fill-rule: nonzero; opacity: 1;" transform=" matrix(1 0 0 1 0 0) " stroke-linecap="round"/>
	<path d="M 52.299 51.406 h -2.963 c -0.553 0 -1 -0.447 -1 -1 s 0.447 -1 1 -1 h 2.963 c 0.553 0 1 0.447 1 1 S 52.852 51.406 52.299 51.406 z" style="stroke: none; stroke-width: 1; stroke-dasharray: none; stroke-linecap: butt; stroke-linejoin: miter; stroke-miterlimit: 10; fill: rgb(0,0,0); fill-rule: nonzero; opacity: 1;" transform=" matrix(1 0 0 1 0 0) " stroke-linecap="round"/>
	<path d="M 52.299 40.594 h -2.963 c -0.553 0 -1 -0.448 -1 -1 s 0.447 -1 1 -1 h 2.963 c 0.553 0 1 0.448 1 1 S 52.852 40.594 52.299 40.594 z" style="stroke: none; stroke-width: 1; stroke-dasharray: none; stroke-linecap: butt; stroke-linejoin: miter; stroke-miterlimit: 10; fill: rgb(0,0,0); fill-rule: nonzero; opacity: 1;" transform=" matrix(1 0 0 1 0 0) " stroke-linecap="round"/>
	<path d="M 37.701 51.406 c -0.115 0 -0.231 -0.02 -0.345 -0.062 c -0.519 -0.19 -0.784 -0.766 -0.593 -1.284 l 3.978 -10.812 c 0.145 -0.394 0.52 -0.655 0.938 -0.655 s 0.794 0.261 0.938 0.655 l 3.979 10.812 c 0.19 0.519 -0.075 1.094 -0.594 1.284 c -0.516 0.191 -1.093 -0.074 -1.284 -0.593 l -3.04 -8.262 l -3.039 8.262 C 38.491 51.156 38.108 51.406 37.701 51.406 z" style="stroke: none; stroke-width: 1; stroke-dasharray: none; stroke-linecap: butt; stroke-linejoin: miter; stroke-miterlimit: 10; fill: rgb(0,0,0); fill-rule: nonzero; opacity: 1;" transform=" matrix(1 0 0 1 0 0) " stroke-linecap="round"/>
	<path d="M 44.71 48.832 h -6.062 c -0.552 0 -1 -0.447 -1 -1 s 0.448 -1 1 -1 h 6.062 c 0.552 0 1 0.447 1 1 S 45.262 48.832 44.71 48.832 z" style="stroke: none; stroke-width: 1; stroke-dasharray: none; stroke-linecap: butt; stroke-linejoin: miter; stroke-miterlimit: 10; fill: rgb(0,0,0); fill-rule: nonzero; opacity: 1;" transform=" matrix(1 0 0 1 0 0) " stroke-linecap="round"/>
	<path d="M 11.277 22.147 c -2.769 0 -5.021 -2.252 -5.021 -5.021 s 2.252 -5.021 5.021 -5.021 s 5.021 2.252 5.021 5.021 S 14.046 22.147 11.277 22.147 z M 11.277 14.106 c -1.666 0 -3.021 1.355 -3.021 3.021 s 1.355 3.021 3.021 3.021 s 3.021 -1.355 3.021 -3.021 S 12.943 14.106 11.277 14.106 z" style="stroke: none; stroke-width: 1; stroke-dasharray: none; stroke-linecap: butt; stroke-linejoin: miter; stroke-miterlimit: 10; fill: rgb(0,0,0); fill-rule: nonzero; opacity: 1;" transform=" matrix(1 0 0 1 0 0) " stroke-linecap="round"/>
	<path d="M 32.943 25.981 c -0.221 0 -0.442 -0.073 -0.627 -0.222 l -9.458 -7.633 h -7.56 c -0.552 0 -1 -0.448 -1 -1 s 0.448 -1 1 -1 h 7.913 c 0.229 0 0.45 0.078 0.628 0.222 l 9.733 7.855 c 0.43 0.347 0.497 0.977 0.15 1.406 C 33.524 25.854 33.235 25.981 32.943 25.981 z" style="stroke: none; stroke-width: 1; stroke-dasharray: none; stroke-linecap: butt; stroke-linejoin: miter; stroke-miterlimit: 10; fill: rgb(0,0,0); fill-rule: nonzero; opacity: 1;" transform=" matrix(1 0 0 1 0 0) " stroke-linecap="round"/>
	<path d="M 78.723 77.894 c -2.769 0 -5.021 -2.252 -5.021 -5.02 c 0 -2.769 2.252 -5.021 5.021 -5.021 s 5.021 2.252 5.021 5.021 C 83.743 75.642 81.491 77.894 78.723 77.894 z M 78.723 69.854 c -1.665 0 -3.021 1.355 -3.021 3.021 s 1.355 3.02 3.021 3.02 s 3.021 -1.354 3.021 -3.02 S 80.388 69.854 78.723 69.854 z" style="stroke: none; stroke-width: 1; stroke-dasharray: none; stroke-linecap: butt; stroke-linejoin: miter; stroke-miterlimit: 10; fill: rgb(0,0,0); fill-rule: nonzero; opacity: 1;" transform=" matrix(1 0 0 1 0 0) " stroke-linecap="round"/>
	<path d="M 74.702 73.874 H 66.79 c -0.229 0 -0.45 -0.078 -0.628 -0.222 l -9.734 -7.855 c -0.43 -0.347 -0.497 -0.977 -0.15 -1.406 c 0.346 -0.43 0.976 -0.499 1.406 -0.15 l 9.46 7.634 h 7.559 c 0.553 0 1 0.447 1 1 S 75.255 73.874 74.702 73.874 z" style="stroke: none; stroke-width: 1; stroke-dasharray: none; stroke-linecap: butt; stroke-linejoin: miter; stroke-miterlimit: 10; fill: rgb(0,0,0); fill-rule: nonzero; opacity: 1;" transform=" matrix(1 0 0 1 0 0) " stroke-linecap="round"/>
	<path d="M 78.723 22.147 c -2.769 0 -5.021 -2.252 -5.021 -5.021 s 2.252 -5.021 5.021 -5.021 s 5.021 2.252 5.021 5.021 S 81.491 22.147 78.723 22.147 z M 78.723 14.106 c -1.665 0 -3.021 1.355 -3.021 3.021 s 1.355 3.021 3.021 3.021 s 3.021 -1.355 3.021 -3.021 S 80.388 14.106 78.723 14.106 z" style="stroke: none; stroke-width: 1; stroke-dasharray: none; stroke-linecap: butt; stroke-linejoin: miter; stroke-miterlimit: 10; fill: rgb(0,0,0); fill-rule: nonzero; opacity: 1;" transform=" matrix(1 0 0 1 0 0) " stroke-linecap="round"/>
	<path d="M 57.057 25.981 c -0.292 0 -0.582 -0.127 -0.779 -0.372 c -0.347 -0.43 -0.279 -1.06 0.15 -1.406 l 9.734 -7.855 c 0.178 -0.144 0.399 -0.222 0.628 -0.222 h 7.912 c 0.553 0 1 0.448 1 1 s -0.447 1 -1 1 h -7.559 l -9.46 7.633 C 57.499 25.909 57.276 25.981 57.057 25.981 z" style="stroke: none; stroke-width: 1; stroke-dasharray: none; stroke-linecap: butt; stroke-linejoin: miter; stroke-miterlimit: 10; fill: rgb(0,0,0); fill-rule: nonzero; opacity: 1;" transform=" matrix(1 0 0 1 0 0) " stroke-linecap="round"/>
	<path d="M 11.277 77.894 c -2.769 0 -5.021 -2.252 -5.021 -5.02 c 0 -2.769 2.252 -5.021 5.021 -5.021 s 5.021 2.252 5.021 5.021 C 16.298 75.642 14.046 77.894 11.277 77.894 z M 11.277 69.854 c -1.666 0 -3.021 1.355 -3.021 3.021 s 1.355 3.02 3.021 3.02 s 3.021 -1.354 3.021 -3.02 S 12.943 69.854 11.277 69.854 z" style="stroke: none; stroke-width: 1; stroke-dasharray: none; stroke-linecap: butt; stroke-linejoin: miter; stroke-miterlimit: 10; fill: rgb(0,0,0); fill-rule: nonzero; opacity: 1;" transform=" matrix(1 0 0 1 0 0) " stroke-linecap="round"/>
	<path d="M 23.21 73.874 h -7.913 c -0.552 0 -1 -0.447 -1 -1 s 0.448 -1 1 -1 h 7.56 l 9.458 -7.634 c 0.43 -0.347 1.059 -0.28 1.406 0.15 c 0.347 0.43 0.279 1.06 -0.15 1.406 l -9.733 7.855 C 23.661 73.796 23.439 73.874 23.21 73.874 z" style="stroke: none; stroke-width: 1; stroke-dasharray: none; stroke-linecap: butt; stroke-linejoin: miter; stroke-miterlimit: 10; fill: rgb(0,0,0); fill-rule: nonzero; opacity: 1;" transform=" matrix(1 0 0 1 0 0) " stroke-linecap="round"/>
	<path d="M 45 14.194 c -2.769 0 -5.021 -2.252 -5.021 -5.02 c 0 -2.769 2.252 -5.021 5.021 -5.021 s 5.021 2.252 5.021 5.021 C 50.021 11.942 47.769 14.194 45 14.194 z M 45 6.154 c -1.666 0 -3.021 1.355 -3.021 3.021 c 0 1.665 1.355 3.02 3.021 3.02 c 1.665 0 3.021 -1.355 3.021 -3.02 C 48.021 7.509 46.665 6.154 45 6.154 z" style="stroke: none; stroke-width: 1; stroke-dasharray: none; stroke-linecap: butt; stroke-linejoin: miter; stroke-miterlimit: 10; fill: rgb(0,0,0); fill-rule: nonzero; opacity: 1;" transform=" matrix(1 0 0 1 0 0) " stroke-linecap="round"/>
	<path d="M 45 85.847 c -2.769 0 -5.021 -2.252 -5.021 -5.021 s 2.252 -5.021 5.021 -5.021 s 5.021 2.252 5.021 5.021 S 47.769 85.847 45 85.847 z M 45 77.806 c -1.666 0 -3.021 1.355 -3.021 3.021 s 1.355 3.021 3.021 3.021 c 1.665 0 3.021 -1.355 3.021 -3.021 S 46.665 77.806 45 77.806 z" style="stroke: none; stroke-width: 1; stroke-dasharray: none; stroke-linecap: butt; stroke-linejoin: miter; stroke-miterlimit: 10; fill: rgb(0,0,0); fill-rule: nonzero; opacity: 1;" transform=" matrix(1 0 0 1 0 0) " stroke-linecap="round"/>
	<path d="M 45 27.509 c -0.552 0 -1 -0.448 -1 -1 V 13.194 c 0 -0.552 0.448 -1 1 -1 s 1 0.448 1 1 v 13.314 C 46 27.061 45.552 27.509 45 27.509 z" style="stroke: none; stroke-width: 1; stroke-dasharray: none; stroke-linecap: butt; stroke-linejoin: miter; stroke-miterlimit: 10; fill: rgb(0,0,0); fill-rule: nonzero; opacity: 1;" transform=" matrix(1 0 0 1 0 0) " stroke-linecap="round"/>
	<path d="M 45 77.806 c -0.552 0 -1 -0.447 -1 -1 V 63.491 c 0 -0.553 0.448 -1 1 -1 s 1 0.447 1 1 v 13.314 C 46 77.358 45.552 77.806 45 77.806 z" style="stroke: none; stroke-width: 1; stroke-dasharray: none; stroke-linecap: butt; stroke-linejoin: miter; stroke-miterlimit: 10; fill: rgb(0,0,0); fill-rule: nonzero; opacity: 1;" transform=" matrix(1 0 0 1 0 0) " stroke-linecap="round"/>
	<path d="M 5.021 50.021 C 2.252 50.021 0 47.769 0 45 s 2.252 -5.021 5.021 -5.021 s 5.021 2.252 5.021 5.021 S 7.789 50.021 5.021 50.021 z M 5.021 41.979 C 3.355 41.979 2 43.334 2 45 c 0 1.665 1.355 3.021 3.021 3.021 S 8.041 46.665 8.041 45 C 8.041 43.334 6.686 41.979 5.021 41.979 z" style="stroke: none; stroke-width: 1; stroke-dasharray: none; stroke-linecap: butt; stroke-linejoin: miter; stroke-miterlimit: 10; fill: rgb(0,0,0); fill-rule: nonzero; opacity: 1;" transform=" matrix(1 0 0 1 0 0) " stroke-linecap="round"/>
	<path d="M 84.979 50.021 c -2.769 0 -5.021 -2.252 -5.021 -5.021 s 2.252 -5.021 5.021 -5.021 S 90 42.231 90 45 S 87.748 50.021 84.979 50.021 z M 84.979 41.979 c -1.665 0 -3.021 1.355 -3.021 3.021 c 0 1.665 1.355 3.021 3.021 3.021 S 88 46.665 88 45 C 88 43.334 86.645 41.979 84.979 41.979 z" style="stroke: none; stroke-width: 1; stroke-dasharray: none; stroke-linecap: butt; stroke-linejoin: miter; stroke-miterlimit: 10; fill: rgb(0,0,0); fill-rule: nonzero; opacity: 1;" transform=" matrix(1 0 0 1 0 0) " stroke-linecap="round"/>
	<path d="M 21.635 46 H 9.041 c -0.552 0 -1 -0.448 -1 -1 s 0.448 -1 1 -1 h 12.594 c 0.552 0 1 0.448 1 1 S 22.188 46 21.635 46 z" style="stroke: none; stroke-width: 1; stroke-dasharray: none; stroke-linecap: butt; stroke-linejoin: miter; stroke-miterlimit: 10; fill: rgb(0,0,0); fill-rule: nonzero; opacity: 1;" transform=" matrix(1 0 0 1 0 0) " stroke-linecap="round"/>
	<path d="M 80.959 46 H 68.364 c -0.553 0 -1 -0.448 -1 -1 s 0.447 -1 1 -1 h 12.595 c 0.553 0 1 0.448 1 1 S 81.512 46 80.959 46 z" style="stroke: none; stroke-width: 1; stroke-dasharray: none; stroke-linecap: butt; stroke-linejoin: miter; stroke-miterlimit: 10; fill: rgb(0,0,0); fill-rule: nonzero; opacity: 1;" transform=" matrix(1 0 0 1 0 0) " stroke-linecap="round"/>
</g>
</svg>