<svg xmlns="http://www.w3.org/2000/svg" viewBox="0 0 24 24" fill="none" stroke="#00FF94" stroke-width="1.5" stroke-linecap="round" stroke-linejoin="round">
  <!-- Connections -->
  <line x1="4" y1="6" x2="12" y2="6" stroke="#00FF94" opacity="0.4" />
  <line x1="4" y1="6" x2="12" y2="12" stroke="#00FF94" opacity="0.4" />
  <line x1="4" y1="12" x2="12" y2="6" stroke="#00FF94" opacity="0.4" />
  <line x1="4" y1="12" x2="12" y2="12" stroke="#00FF94" opacity="0.4" />
  <line x1="4" y1="12" x2="12" y2="18" stroke="#00FF94" opacity="0.4" />
  <line x1="4" y1="18" x2="12" y2="12" stroke="#00FF94" opacity="0.4" />
  <line x1="4" y1="18" x2="12" y2="18" stroke="#00FF94" opacity="0.4" />
  
  <line x1="12" y1="6" x2="20" y2="9" stroke="#00FF94" opacity="0.4" />
  <line x1="12" y1="12" x2="20" y2="9" stroke="#00FF94" opacity="0.4" />
  <line x1="12" y1="12" x2="20" y2="15" stroke="#00FF94" opacity="0.4" />
  <line x1="12" y1="18" x2="20" y2="15" stroke="#00FF94" opacity="0.4" />

  <!-- Input nodes -->
  <circle cx="4" cy="6" r="2" fill="#020b18" />
  <circle cx="4" cy="12" r="2" fill="#020b18" />
  <circle cx="4" cy="18" r="2" fill="#020b18" />
  
  <!-- Hidden nodes -->
  <circle cx="12" cy="6" r="2" fill="#020b18" />
  <circle cx="12" cy="12" r="2" fill="#020b18" />
  <circle cx="12" cy="18" r="2" fill="#020b18" />
  
  <!-- Output nodes -->
  <circle cx="20" cy="9" r="2" fill="#020b18" />
  <circle cx="20" cy="15" r="2" fill="#020b18" />
</svg>
